<svg width="219" height="78" viewBox="0 0 219 78" fill="none" xmlns="http://www.w3.org/2000/svg">
<path d="M8.15863 21.6203L27.3314 5.3031L46.5042 21.6203V52.2152L8.15863 50.9914V21.6203Z" fill="#FAE3B7"/>
<path d="M22.0283 33.8583L19.5807 51.8072H35.8979V33.8583H22.0283Z" fill="#FEE8DE"/>
<path d="M26.015 0.666459C27.0008 -0.222153 28.4957 -0.222153 29.4815 0.666459L54.6138 23.2069C55.6862 24.1605 55.7729 25.8077 54.8088 26.8805C53.8446 27.9533 52.2089 28.04 51.1364 27.0756L50.2698 26.2953V48.5431C50.2698 52.3685 47.1608 55.4786 43.3368 55.4786H12.1381C8.31411 55.4786 5.20508 52.3685 5.20508 48.5431V26.2953L4.33845 27.0756C3.266 28.0292 1.63024 27.9425 0.666113 26.8805C-0.298012 25.8185 -0.200516 24.1713 0.861105 23.2069L26.015 0.666459ZM27.7483 6.09566L10.4157 21.6464V48.554C10.4157 49.5076 11.1957 50.2878 12.1489 50.2878H17.3487V39.0176C17.3487 34.7046 20.8369 31.2152 25.1484 31.2152H30.3482C34.6596 31.2152 38.1478 34.7046 38.1478 39.0176V50.2878H43.3476C44.3009 50.2878 45.0809 49.5076 45.0809 48.554V21.6464L27.7483 6.1065V6.09566ZM22.5485 50.2878H32.9481V39.0176C32.9481 37.5764 31.7889 36.4168 30.3482 36.4168H25.1484C23.7076 36.4168 22.5485 37.5764 22.5485 39.0176V50.2878Z" fill="#F38078"/>
<path d="M98.8736 8.67182V16.0418H87.5986V48.7393H78.3036V16.0418H67.0286V8.67182H98.8736ZM138.183 48.7393H128.833V31.7993H112.553V48.7393H103.203V8.67182H112.553V25.4193H128.833V8.67182H138.183V48.7393ZM182.566 48.7393H175.361C174.554 48.7393 173.885 48.556 173.353 48.1893C172.84 47.8043 172.482 47.3185 172.281 46.7318L169.916 39.7468H154.681L152.316 46.7318C152.132 47.2452 151.775 47.7127 151.243 48.1343C150.712 48.5377 150.061 48.7393 149.291 48.7393H142.031L157.541 8.67182H167.056L182.566 48.7393ZM156.826 33.4218H167.771L164.086 22.4493C163.847 21.7527 163.563 20.9368 163.233 20.0018C162.922 19.0485 162.61 18.0218 162.298 16.9218C162.005 18.0402 161.702 19.076 161.391 20.0293C161.079 20.9827 160.786 21.8077 160.511 22.5043L156.826 33.4218ZM211.018 8.67182V16.0418H199.743V48.7393H190.448V16.0418H179.173V8.67182H211.018Z" fill="black"/>
<path d="M7.371 65.2811V65.8466H4.1405V74.4786H3.4775V65.8466H0.2275V65.2811H7.371ZM8.11648 74.4786V68.0111H8.44148C8.51514 68.0111 8.56714 68.0263 8.59748 68.0566C8.63214 68.087 8.65164 68.139 8.65598 68.2126L8.70798 69.5776C8.91598 69.0533 9.19331 68.6438 9.53998 68.3491C9.88664 68.0501 10.3135 67.9006 10.8205 67.9006C11.0155 67.9006 11.1953 67.9223 11.36 67.9656C11.5246 68.0046 11.6806 68.0631 11.828 68.1411L11.7435 68.5701C11.7305 68.6395 11.6871 68.6741 11.6135 68.6741C11.5875 68.6741 11.5506 68.6655 11.503 68.6481C11.4553 68.6308 11.3946 68.6113 11.321 68.5896C11.2516 68.568 11.165 68.5485 11.061 68.5311C10.957 68.5138 10.8378 68.5051 10.7035 68.5051C10.2138 68.5051 9.81081 68.6568 9.49448 68.9601C9.18248 69.2635 8.92898 69.7011 8.73398 70.2731V74.4786H8.11648ZM17.5809 74.4786C17.4509 74.4786 17.3707 74.418 17.3404 74.2966L17.2494 73.4711C17.0717 73.6445 16.8941 73.8005 16.7164 73.9391C16.5431 74.0778 16.3611 74.1948 16.1704 74.2901C15.9797 74.3855 15.7739 74.457 15.5529 74.5046C15.3319 74.5566 15.0892 74.5826 14.8249 74.5826C14.6039 74.5826 14.3894 74.5501 14.1814 74.4851C13.9734 74.4201 13.7892 74.3205 13.6289 74.1861C13.4686 74.0518 13.3386 73.8806 13.2389 73.6726C13.1436 73.4603 13.0959 73.2068 13.0959 72.9121C13.0959 72.6391 13.1739 72.3856 13.3299 72.1516C13.4859 71.9176 13.7286 71.714 14.0579 71.5406C14.3916 71.3673 14.8184 71.2286 15.3384 71.1246C15.8627 71.0206 16.4911 70.96 17.2234 70.9426V70.2666C17.2234 69.6686 17.0934 69.2093 16.8334 68.8886C16.5777 68.5636 16.1964 68.4011 15.6894 68.4011C15.3774 68.4011 15.1109 68.4445 14.8899 68.5311C14.6732 68.6178 14.4891 68.7131 14.3374 68.8171C14.1857 68.9211 14.0622 69.0165 13.9669 69.1031C13.8716 69.1898 13.7914 69.2331 13.7264 69.2331C13.6397 69.2331 13.5747 69.1941 13.5314 69.1161L13.4209 68.9276C13.7589 68.5896 14.1142 68.334 14.4869 68.1606C14.8596 67.9873 15.2821 67.9006 15.7544 67.9006C16.1011 67.9006 16.4044 67.957 16.6644 68.0696C16.9244 68.178 17.1389 68.3361 17.3079 68.5441C17.4812 68.7478 17.6112 68.997 17.6979 69.2916C17.7846 69.582 17.8279 69.907 17.8279 70.2666V74.4786H17.5809ZM14.9809 74.1341C15.2322 74.1341 15.4619 74.1081 15.6699 74.0561C15.8822 73.9998 16.0772 73.924 16.2549 73.8286C16.4369 73.729 16.6059 73.612 16.7619 73.4776C16.9179 73.3433 17.0717 73.1981 17.2234 73.0421V71.3586C16.6081 71.376 16.0772 71.4236 15.6309 71.5016C15.1889 71.5753 14.8227 71.6771 14.5324 71.8071C14.2464 71.9371 14.0341 72.0931 13.8954 72.2751C13.7611 72.4528 13.6939 72.6565 13.6939 72.8861C13.6939 73.1028 13.7286 73.2913 13.7979 73.4516C13.8716 73.6076 13.9669 73.7376 14.0839 73.8416C14.2009 73.9413 14.3374 74.015 14.4934 74.0626C14.6494 74.1103 14.8119 74.1341 14.9809 74.1341ZM20.2757 74.4786V68.0111H20.6137C20.7263 68.0111 20.7913 68.0653 20.8087 68.1736L20.8672 69.1486C21.1618 68.776 21.5042 68.477 21.8942 68.2516C22.2885 68.022 22.7262 67.9071 23.2072 67.9071C23.5625 67.9071 23.8745 67.9635 24.1432 68.0761C24.4162 68.1888 24.6415 68.3513 24.8192 68.5636C24.9968 68.776 25.1312 69.0316 25.2222 69.3306C25.3132 69.6296 25.3587 69.9676 25.3587 70.3446V74.4786H24.7412V70.3446C24.7412 69.738 24.6025 69.2635 24.3252 68.9211C24.0478 68.5745 23.6232 68.4011 23.0512 68.4011C22.6265 68.4011 22.2322 68.5116 21.8682 68.7326C21.5042 68.9493 21.1792 69.2483 20.8932 69.6296V74.4786H20.2757ZM31.3709 68.8106C31.3405 68.8713 31.2929 68.9016 31.2279 68.9016C31.1802 68.9016 31.1174 68.8756 31.0394 68.8236C30.9657 68.7673 30.866 68.7066 30.7404 68.6416C30.619 68.5723 30.4674 68.5116 30.2854 68.4596C30.1077 68.4033 29.8889 68.3751 29.6289 68.3751C29.3949 68.3751 29.1804 68.4098 28.9854 68.4791C28.7947 68.5441 28.63 68.633 28.4914 68.7456C28.357 68.8583 28.2509 68.9905 28.1729 69.1421C28.0992 69.2895 28.0624 69.4455 28.0624 69.6101C28.0624 69.8138 28.1144 69.9828 28.2184 70.1171C28.3224 70.2515 28.4589 70.3663 28.6279 70.4616C28.7969 70.557 28.9875 70.6393 29.1999 70.7086C29.4165 70.778 29.6375 70.8473 29.8629 70.9166C30.0882 70.986 30.307 71.064 30.5194 71.1506C30.736 71.233 30.9289 71.337 31.0979 71.4626C31.2669 71.5883 31.4034 71.7421 31.5074 71.9241C31.6114 72.1061 31.6634 72.3271 31.6634 72.5871C31.6634 72.8688 31.6114 73.131 31.5074 73.3736C31.4077 73.6163 31.2604 73.8265 31.0654 74.0041C30.8747 74.1818 30.6385 74.3226 30.3569 74.4266C30.0752 74.5306 29.7545 74.5826 29.3949 74.5826C28.9399 74.5826 28.5477 74.5111 28.2184 74.3681C27.889 74.2208 27.5944 74.0301 27.3344 73.7961L27.4839 73.5751C27.5055 73.5405 27.5294 73.5145 27.5554 73.4971C27.5814 73.4798 27.6182 73.4711 27.6659 73.4711C27.7222 73.4711 27.7915 73.5058 27.8739 73.5751C27.9562 73.6445 28.0624 73.7203 28.1924 73.8026C28.3267 73.8806 28.4914 73.9543 28.6864 74.0236C28.8857 74.093 29.1305 74.1276 29.4209 74.1276C29.6939 74.1276 29.9344 74.0908 30.1424 74.0171C30.3504 73.9391 30.5237 73.8351 30.6624 73.7051C30.801 73.5751 30.905 73.4235 30.9744 73.2501C31.048 73.0725 31.0849 72.8861 31.0849 72.6911C31.0849 72.4745 31.0329 72.2946 30.9289 72.1516C30.8249 72.0086 30.6884 71.8873 30.5194 71.7876C30.3504 71.688 30.1575 71.6035 29.9409 71.5341C29.7285 71.4648 29.5075 71.3955 29.2779 71.3261C29.0525 71.2568 28.8315 71.181 28.6149 71.0986C28.4025 71.0163 28.2119 70.9123 28.0429 70.7866C27.8739 70.661 27.7374 70.5093 27.6334 70.3316C27.5294 70.1496 27.4774 69.9243 27.4774 69.6556C27.4774 69.426 27.5272 69.205 27.6269 68.9926C27.7265 68.7803 27.8674 68.594 28.0494 68.4336C28.2357 68.2733 28.461 68.1455 28.7254 68.0501C28.9897 67.9548 29.2865 67.9071 29.6159 67.9071C30.0102 67.9071 30.359 67.9635 30.6624 68.0761C30.97 68.1888 31.2517 68.3621 31.5074 68.5961L31.3709 68.8106ZM34.6943 68.0111V74.4786H34.0768V68.0111H34.6943ZM34.9673 65.7816C34.9673 65.8596 34.95 65.9333 34.9153 66.0026C34.885 66.0676 34.8438 66.1261 34.7918 66.1781C34.7398 66.2301 34.6791 66.2713 34.6098 66.3016C34.5405 66.332 34.4668 66.3471 34.3888 66.3471C34.3108 66.3471 34.2371 66.332 34.1678 66.3016C34.0985 66.2713 34.0378 66.2301 33.9858 66.1781C33.9338 66.1261 33.8926 66.0676 33.8623 66.0026C33.832 65.9333 33.8168 65.8596 33.8168 65.7816C33.8168 65.7036 33.832 65.63 33.8623 65.5606C33.8926 65.487 33.9338 65.4241 33.9858 65.3721C34.0378 65.3201 34.0985 65.279 34.1678 65.2486C34.2371 65.2183 34.3108 65.2031 34.3888 65.2031C34.4668 65.2031 34.5405 65.2183 34.6098 65.2486C34.6791 65.279 34.7398 65.3201 34.7918 65.3721C34.8438 65.4241 34.885 65.487 34.9153 65.5606C34.95 65.63 34.9673 65.7036 34.9673 65.7816ZM39.2478 74.5826C38.8101 74.5826 38.4678 74.4613 38.2208 74.2186C37.9781 73.976 37.8568 73.6011 37.8568 73.0941V68.6741H36.9273C36.8796 68.6741 36.8406 68.6611 36.8103 68.6351C36.7799 68.6091 36.7648 68.5723 36.7648 68.5246V68.2841L37.8698 68.2061L38.0258 65.8921C38.0301 65.8531 38.0453 65.8185 38.0713 65.7881C38.1016 65.7578 38.1406 65.7426 38.1883 65.7426H38.4808V68.2126H40.5153V68.6741H38.4808V73.0616C38.4808 73.2393 38.5024 73.3931 38.5458 73.5231C38.5934 73.6488 38.6563 73.7528 38.7343 73.8351C38.8166 73.9175 38.9119 73.9781 39.0203 74.0171C39.1286 74.0561 39.2456 74.0756 39.3713 74.0756C39.5273 74.0756 39.6616 74.054 39.7743 74.0106C39.8869 73.963 39.9844 73.9131 40.0668 73.8611C40.1491 73.8048 40.2163 73.755 40.2683 73.7116C40.3203 73.664 40.3614 73.6401 40.3918 73.6401C40.4264 73.6401 40.4611 73.6618 40.4958 73.7051L40.6648 73.9781C40.5001 74.1601 40.2899 74.3075 40.0343 74.4201C39.7829 74.5285 39.5208 74.5826 39.2478 74.5826ZM43.413 68.0111V74.4786H42.7955V68.0111H43.413ZM43.686 65.7816C43.686 65.8596 43.6687 65.9333 43.634 66.0026C43.6037 66.0676 43.5625 66.1261 43.5105 66.1781C43.4585 66.2301 43.3979 66.2713 43.3285 66.3016C43.2592 66.332 43.1855 66.3471 43.1075 66.3471C43.0295 66.3471 42.9559 66.332 42.8865 66.3016C42.8172 66.2713 42.7565 66.2301 42.7045 66.1781C42.6525 66.1261 42.6114 66.0676 42.581 66.0026C42.5507 65.9333 42.5355 65.8596 42.5355 65.7816C42.5355 65.7036 42.5507 65.63 42.581 65.5606C42.6114 65.487 42.6525 65.4241 42.7045 65.3721C42.7565 65.3201 42.8172 65.279 42.8865 65.2486C42.9559 65.2183 43.0295 65.2031 43.1075 65.2031C43.1855 65.2031 43.2592 65.2183 43.3285 65.2486C43.3979 65.279 43.4585 65.3201 43.5105 65.3721C43.5625 65.4241 43.6037 65.487 43.634 65.5606C43.6687 65.63 43.686 65.7036 43.686 65.7816ZM48.662 67.9071C49.1257 67.9071 49.5395 67.9873 49.9035 68.1476C50.2718 68.3036 50.5817 68.5268 50.833 68.8171C51.0843 69.1075 51.275 69.4585 51.405 69.8701C51.5393 70.2775 51.6065 70.7346 51.6065 71.2416C51.6065 71.7486 51.5393 72.2058 51.405 72.6131C51.275 73.0205 51.0843 73.3693 50.833 73.6596C50.5817 73.95 50.2718 74.1731 49.9035 74.3291C49.5395 74.4851 49.1257 74.5631 48.662 74.5631C48.1983 74.5631 47.7823 74.4851 47.414 74.3291C47.05 74.1731 46.7402 73.95 46.4845 73.6596C46.2332 73.3693 46.0403 73.0205 45.906 72.6131C45.776 72.2058 45.711 71.7486 45.711 71.2416C45.711 70.7346 45.776 70.2775 45.906 69.8701C46.0403 69.4585 46.2332 69.1075 46.4845 68.8171C46.7402 68.5268 47.05 68.3036 47.414 68.1476C47.7823 67.9873 48.1983 67.9071 48.662 67.9071ZM48.662 74.0756C49.0477 74.0756 49.3835 74.0106 49.6695 73.8806C49.9598 73.7463 50.2003 73.5556 50.391 73.3086C50.586 73.0616 50.7312 72.7648 50.8265 72.4181C50.9218 72.0671 50.9695 71.675 50.9695 71.2416C50.9695 70.8126 50.9218 70.4226 50.8265 70.0716C50.7312 69.7206 50.586 69.4216 50.391 69.1746C50.2003 68.9233 49.9598 68.7305 49.6695 68.5961C49.3835 68.4618 49.0477 68.3946 48.662 68.3946C48.2763 68.3946 47.9383 68.4618 47.648 68.5961C47.362 68.7305 47.1215 68.9233 46.9265 69.1746C46.7358 69.4216 46.5907 69.7206 46.491 70.0716C46.3957 70.4226 46.348 70.8126 46.348 71.2416C46.348 71.675 46.3957 72.0671 46.491 72.4181C46.5907 72.7648 46.7358 73.0616 46.9265 73.3086C47.1215 73.5556 47.362 73.7463 47.648 73.8806C47.9383 74.0106 48.2763 74.0756 48.662 74.0756ZM53.7317 74.4786V68.0111H54.0697C54.1824 68.0111 54.2474 68.0653 54.2647 68.1736L54.3232 69.1486C54.6179 68.776 54.9602 68.477 55.3502 68.2516C55.7445 68.022 56.1822 67.9071 56.6632 67.9071C57.0185 67.9071 57.3305 67.9635 57.5992 68.0761C57.8722 68.1888 58.0975 68.3513 58.2752 68.5636C58.4529 68.776 58.5872 69.0316 58.6782 69.3306C58.7692 69.6296 58.8147 69.9676 58.8147 70.3446V74.4786H58.1972V70.3446C58.1972 69.738 58.0585 69.2635 57.7812 68.9211C57.5039 68.5745 57.0792 68.4011 56.5072 68.4011C56.0825 68.4011 55.6882 68.5116 55.3242 68.7326C54.9602 68.9493 54.6352 69.2483 54.3492 69.6296V74.4786H53.7317ZM71.6886 74.4786H71.0191V70.0716H65.2601V74.4786H64.5906V65.2811H65.2601V69.5711H71.0191V65.2811H71.6886V74.4786ZM77.0683 67.9071C77.5319 67.9071 77.9458 67.9873 78.3098 68.1476C78.6781 68.3036 78.9879 68.5268 79.2393 68.8171C79.4906 69.1075 79.6813 69.4585 79.8113 69.8701C79.9456 70.2775 80.0128 70.7346 80.0128 71.2416C80.0128 71.7486 79.9456 72.2058 79.8113 72.6131C79.6813 73.0205 79.4906 73.3693 79.2393 73.6596C78.9879 73.95 78.6781 74.1731 78.3098 74.3291C77.9458 74.4851 77.5319 74.5631 77.0683 74.5631C76.6046 74.5631 76.1886 74.4851 75.8203 74.3291C75.4563 74.1731 75.1464 73.95 74.8908 73.6596C74.6394 73.3693 74.4466 73.0205 74.3123 72.6131C74.1823 72.2058 74.1173 71.7486 74.1173 71.2416C74.1173 70.7346 74.1823 70.2775 74.3123 69.8701C74.4466 69.4585 74.6394 69.1075 74.8908 68.8171C75.1464 68.5268 75.4563 68.3036 75.8203 68.1476C76.1886 67.9873 76.6046 67.9071 77.0683 67.9071ZM77.0683 74.0756C77.4539 74.0756 77.7898 74.0106 78.0758 73.8806C78.3661 73.7463 78.6066 73.5556 78.7973 73.3086C78.9923 73.0616 79.1374 72.7648 79.2328 72.4181C79.3281 72.0671 79.3758 71.675 79.3758 71.2416C79.3758 70.8126 79.3281 70.4226 79.2328 70.0716C79.1374 69.7206 78.9923 69.4216 78.7973 69.1746C78.6066 68.9233 78.3661 68.7305 78.0758 68.5961C77.7898 68.4618 77.4539 68.3946 77.0683 68.3946C76.6826 68.3946 76.3446 68.4618 76.0543 68.5961C75.7683 68.7305 75.5278 68.9233 75.3328 69.1746C75.1421 69.4216 74.9969 69.7206 74.8973 70.0716C74.8019 70.4226 74.7543 70.8126 74.7543 71.2416C74.7543 71.675 74.8019 72.0671 74.8973 72.4181C74.9969 72.7648 75.1421 73.0616 75.3328 73.3086C75.5278 73.5556 75.7683 73.7463 76.0543 73.8806C76.3446 74.0106 76.6826 74.0756 77.0683 74.0756ZM82.5995 68.0111V72.1451C82.5995 72.7518 82.7381 73.2285 83.0155 73.5751C83.2928 73.9175 83.7153 74.0886 84.283 74.0886C84.7033 74.0886 85.0955 73.9825 85.4595 73.7701C85.8235 73.5535 86.1506 73.2545 86.441 72.8731V68.0111H87.065V74.4786H86.7205C86.5991 74.4786 86.5363 74.4223 86.532 74.3096L86.4735 73.3476C86.1745 73.7203 85.8278 74.0193 85.4335 74.2446C85.0435 74.47 84.608 74.5826 84.127 74.5826C83.7673 74.5826 83.4531 74.5263 83.1845 74.4136C82.9158 74.301 82.6926 74.1385 82.515 73.9261C82.3373 73.7138 82.203 73.4581 82.112 73.1591C82.021 72.8601 81.9755 72.5221 81.9755 72.1451V68.0111H82.5995ZM93.2332 68.8106C93.2028 68.8713 93.1552 68.9016 93.0902 68.9016C93.0425 68.9016 92.9797 68.8756 92.9017 68.8236C92.828 68.7673 92.7283 68.7066 92.6027 68.6416C92.4813 68.5723 92.3297 68.5116 92.1477 68.4596C91.97 68.4033 91.7512 68.3751 91.4912 68.3751C91.2572 68.3751 91.0427 68.4098 90.8477 68.4791C90.657 68.5441 90.4923 68.633 90.3537 68.7456C90.2193 68.8583 90.1132 68.9905 90.0352 69.1421C89.9615 69.2895 89.9247 69.4455 89.9247 69.6101C89.9247 69.8138 89.9767 69.9828 90.0807 70.1171C90.1847 70.2515 90.3212 70.3663 90.4902 70.4616C90.6592 70.557 90.8498 70.6393 91.0622 70.7086C91.2788 70.778 91.4998 70.8473 91.7252 70.9166C91.9505 70.986 92.1693 71.064 92.3817 71.1506C92.5983 71.233 92.7912 71.337 92.9602 71.4626C93.1292 71.5883 93.2657 71.7421 93.3697 71.9241C93.4737 72.1061 93.5257 72.3271 93.5257 72.5871C93.5257 72.8688 93.4737 73.131 93.3697 73.3736C93.27 73.6163 93.1227 73.8265 92.9277 74.0041C92.737 74.1818 92.5008 74.3226 92.2192 74.4266C91.9375 74.5306 91.6168 74.5826 91.2572 74.5826C90.8022 74.5826 90.41 74.5111 90.0807 74.3681C89.7513 74.2208 89.4567 74.0301 89.1967 73.7961L89.3462 73.5751C89.3678 73.5405 89.3917 73.5145 89.4177 73.4971C89.4437 73.4798 89.4805 73.4711 89.5282 73.4711C89.5845 73.4711 89.6538 73.5058 89.7362 73.5751C89.8185 73.6445 89.9247 73.7203 90.0547 73.8026C90.189 73.8806 90.3537 73.9543 90.5487 74.0236C90.748 74.093 90.9928 74.1276 91.2832 74.1276C91.5562 74.1276 91.7967 74.0908 92.0047 74.0171C92.2127 73.9391 92.386 73.8351 92.5247 73.7051C92.6633 73.5751 92.7673 73.4235 92.8367 73.2501C92.9103 73.0725 92.9472 72.8861 92.9472 72.6911C92.9472 72.4745 92.8952 72.2946 92.7912 72.1516C92.6872 72.0086 92.5507 71.8873 92.3817 71.7876C92.2127 71.688 92.0198 71.6035 91.8032 71.5341C91.5908 71.4648 91.3698 71.3955 91.1402 71.3261C90.9148 71.2568 90.6938 71.181 90.4772 71.0986C90.2648 71.0163 90.0742 70.9123 89.9052 70.7866C89.7362 70.661 89.5997 70.5093 89.4957 70.3316C89.3917 70.1496 89.3397 69.9243 89.3397 69.6556C89.3397 69.426 89.3895 69.205 89.4892 68.9926C89.5888 68.7803 89.7297 68.594 89.9117 68.4336C90.098 68.2733 90.3233 68.1455 90.5877 68.0501C90.852 67.9548 91.1488 67.9071 91.4782 67.9071C91.8725 67.9071 92.2213 67.9635 92.5247 68.0761C92.8323 68.1888 93.114 68.3621 93.3697 68.5961L93.2332 68.8106ZM98.1946 67.9071C98.5586 67.9071 98.8944 67.97 99.2021 68.0956C99.5141 68.2213 99.7828 68.4055 100.008 68.6481C100.238 68.8865 100.415 69.1811 100.541 69.5321C100.671 69.8831 100.736 70.2861 100.736 70.7411C100.736 70.8365 100.721 70.9015 100.691 70.9361C100.665 70.9708 100.621 70.9881 100.561 70.9881H95.8871V71.1116C95.8871 71.597 95.9434 72.0238 96.0561 72.3921C96.1688 72.7605 96.3291 73.0703 96.5371 73.3216C96.7451 73.5686 96.9964 73.755 97.2911 73.8806C97.5858 74.0063 97.9151 74.0691 98.2791 74.0691C98.6041 74.0691 98.8858 74.0345 99.1241 73.9651C99.3624 73.8915 99.5618 73.8113 99.7221 73.7246C99.8868 73.6336 100.017 73.5535 100.112 73.4841C100.207 73.4105 100.277 73.3736 100.32 73.3736C100.376 73.3736 100.42 73.3953 100.45 73.4386L100.619 73.6466C100.515 73.7766 100.376 73.898 100.203 74.0106C100.034 74.1233 99.8434 74.2208 99.6311 74.3031C99.4231 74.3811 99.1978 74.444 98.9551 74.4916C98.7168 74.5393 98.4763 74.5631 98.2336 74.5631C97.7916 74.5631 97.3886 74.4873 97.0246 74.3356C96.6606 74.1796 96.3486 73.9543 96.0886 73.6596C95.8286 73.365 95.6271 73.0053 95.4841 72.5806C95.3454 72.1516 95.2761 71.662 95.2761 71.1116C95.2761 70.648 95.3411 70.2211 95.4711 69.8311C95.6054 69.4368 95.7961 69.0988 96.0431 68.8171C96.2944 68.5311 96.5999 68.308 96.9596 68.1476C97.3236 67.9873 97.7353 67.9071 98.1946 67.9071ZM98.2011 68.3686C97.8674 68.3686 97.5684 68.4206 97.3041 68.5246C97.0398 68.6286 96.8101 68.7781 96.6151 68.9731C96.4244 69.1681 96.2684 69.4021 96.1471 69.6751C96.0301 69.9481 95.9521 70.2536 95.9131 70.5916H100.177C100.177 70.245 100.129 69.9351 100.034 69.6621C99.9388 69.3848 99.8044 69.1508 99.6311 68.9601C99.4578 68.7695 99.2498 68.6243 99.0071 68.5246C98.7644 68.4206 98.4958 68.3686 98.2011 68.3686ZM113.145 74.4786H112.631C112.571 74.4786 112.521 74.4635 112.482 74.4331C112.443 74.3985 112.413 74.3551 112.391 74.3031L111.305 71.6316H106.788L105.709 74.3031C105.692 74.3508 105.661 74.392 105.618 74.4266C105.575 74.4613 105.523 74.4786 105.462 74.4786H104.955L108.718 65.2811H109.381L113.145 74.4786ZM106.989 71.1376H111.11L109.232 66.4901C109.202 66.4165 109.171 66.3341 109.141 66.2431C109.111 66.1478 109.08 66.0481 109.05 65.9441C109.02 66.0481 108.989 66.1478 108.959 66.2431C108.929 66.3341 108.898 66.4186 108.868 66.4966L106.989 71.1376ZM116.718 74.4786H116.172L113.442 68.0111H113.929C113.99 68.0111 114.038 68.0285 114.072 68.0631C114.111 68.0935 114.139 68.1281 114.157 68.1671L116.289 73.2696C116.332 73.3693 116.365 73.4646 116.386 73.5556C116.408 73.6466 116.43 73.7376 116.451 73.8286C116.473 73.7376 116.495 73.6466 116.516 73.5556C116.542 73.4603 116.575 73.365 116.614 73.2696L118.759 68.1671C118.78 68.1195 118.809 68.0826 118.843 68.0566C118.882 68.0263 118.928 68.0111 118.98 68.0111H119.448L116.718 74.4786ZM125.295 74.4786C125.165 74.4786 125.085 74.418 125.054 74.2966L124.963 73.4711C124.786 73.6445 124.608 73.8005 124.43 73.9391C124.257 74.0778 124.075 74.1948 123.884 74.2901C123.694 74.3855 123.488 74.457 123.267 74.5046C123.046 74.5566 122.803 74.5826 122.539 74.5826C122.318 74.5826 122.103 74.5501 121.895 74.4851C121.687 74.4201 121.503 74.3205 121.343 74.1861C121.182 74.0518 121.052 73.8806 120.953 73.6726C120.857 73.4603 120.81 73.2068 120.81 72.9121C120.81 72.6391 120.888 72.3856 121.044 72.1516C121.2 71.9176 121.442 71.714 121.772 71.5406C122.105 71.3673 122.532 71.2286 123.052 71.1246C123.577 71.0206 124.205 70.96 124.937 70.9426V70.2666C124.937 69.6686 124.807 69.2093 124.547 68.8886C124.292 68.5636 123.91 68.4011 123.403 68.4011C123.091 68.4011 122.825 68.4445 122.604 68.5311C122.387 68.6178 122.203 68.7131 122.051 68.8171C121.9 68.9211 121.776 69.0165 121.681 69.1031C121.585 69.1898 121.505 69.2331 121.44 69.2331C121.354 69.2331 121.289 69.1941 121.245 69.1161L121.135 68.9276C121.473 68.5896 121.828 68.334 122.201 68.1606C122.573 67.9873 122.996 67.9006 123.468 67.9006C123.815 67.9006 124.118 67.957 124.378 68.0696C124.638 68.178 124.853 68.3361 125.022 68.5441C125.195 68.7478 125.325 68.997 125.412 69.2916C125.498 69.582 125.542 69.907 125.542 70.2666V74.4786H125.295ZM122.695 74.1341C122.946 74.1341 123.176 74.1081 123.384 74.0561C123.596 73.9998 123.791 73.924 123.969 73.8286C124.151 73.729 124.32 73.612 124.476 73.4776C124.632 73.3433 124.786 73.1981 124.937 73.0421V71.3586C124.322 71.376 123.791 71.4236 123.345 71.5016C122.903 71.5753 122.537 71.6771 122.246 71.8071C121.96 71.9371 121.748 72.0931 121.609 72.2751C121.475 72.4528 121.408 72.6565 121.408 72.8861C121.408 73.1028 121.442 73.2913 121.512 73.4516C121.585 73.6076 121.681 73.7376 121.798 73.8416C121.915 73.9413 122.051 74.015 122.207 74.0626C122.363 74.1103 122.526 74.1341 122.695 74.1341ZM128.789 68.0111V74.4786H128.172V68.0111H128.789ZM129.062 65.7816C129.062 65.8596 129.045 65.9333 129.01 66.0026C128.98 66.0676 128.939 66.1261 128.887 66.1781C128.835 66.2301 128.774 66.2713 128.705 66.3016C128.635 66.332 128.562 66.3471 128.484 66.3471C128.406 66.3471 128.332 66.332 128.263 66.3016C128.193 66.2713 128.133 66.2301 128.081 66.1781C128.029 66.1261 127.987 66.0676 127.957 66.0026C127.927 65.9333 127.912 65.8596 127.912 65.7816C127.912 65.7036 127.927 65.63 127.957 65.5606C127.987 65.487 128.029 65.4241 128.081 65.3721C128.133 65.3201 128.193 65.279 128.263 65.2486C128.332 65.2183 128.406 65.2031 128.484 65.2031C128.562 65.2031 128.635 65.2183 128.705 65.2486C128.774 65.279 128.835 65.3201 128.887 65.3721C128.939 65.4241 128.98 65.487 129.01 65.5606C129.045 65.63 129.062 65.7036 129.062 65.7816ZM132.374 65.0211V74.4786H131.756V65.0211H132.374ZM139.287 74.4786C139.157 74.4786 139.077 74.418 139.046 74.2966L138.955 73.4711C138.778 73.6445 138.6 73.8005 138.422 73.9391C138.249 74.0778 138.067 74.1948 137.876 74.2901C137.686 74.3855 137.48 74.457 137.259 74.5046C137.038 74.5566 136.795 74.5826 136.531 74.5826C136.31 74.5826 136.095 74.5501 135.887 74.4851C135.679 74.4201 135.495 74.3205 135.335 74.1861C135.175 74.0518 135.045 73.8806 134.945 73.6726C134.85 73.4603 134.802 73.2068 134.802 72.9121C134.802 72.6391 134.88 72.3856 135.036 72.1516C135.192 71.9176 135.435 71.714 135.764 71.5406C136.098 71.3673 136.524 71.2286 137.044 71.1246C137.569 71.0206 138.197 70.96 138.929 70.9426V70.2666C138.929 69.6686 138.799 69.2093 138.539 68.8886C138.284 68.5636 137.902 68.4011 137.395 68.4011C137.083 68.4011 136.817 68.4445 136.596 68.5311C136.379 68.6178 136.195 68.7131 136.043 68.8171C135.892 68.9211 135.768 69.0165 135.673 69.1031C135.578 69.1898 135.497 69.2331 135.432 69.2331C135.346 69.2331 135.281 69.1941 135.237 69.1161L135.127 68.9276C135.465 68.5896 135.82 68.334 136.193 68.1606C136.566 67.9873 136.988 67.9006 137.46 67.9006C137.807 67.9006 138.11 67.957 138.37 68.0696C138.63 68.178 138.845 68.3361 139.014 68.5441C139.187 68.7478 139.317 68.997 139.404 69.2916C139.491 69.582 139.534 69.907 139.534 70.2666V74.4786H139.287ZM136.687 74.1341C136.938 74.1341 137.168 74.1081 137.376 74.0561C137.588 73.9998 137.783 73.924 137.961 73.8286C138.143 73.729 138.312 73.612 138.468 73.4776C138.624 73.3433 138.778 73.1981 138.929 73.0421V71.3586C138.314 71.376 137.783 71.4236 137.337 71.5016C136.895 71.5753 136.529 71.6771 136.238 71.8071C135.952 71.9371 135.74 72.0931 135.601 72.2751C135.467 72.4528 135.4 72.6565 135.4 72.8861C135.4 73.1028 135.435 73.2913 135.504 73.4516C135.578 73.6076 135.673 73.7376 135.79 73.8416C135.907 73.9413 136.043 74.015 136.199 74.0626C136.355 74.1103 136.518 74.1341 136.687 74.1341ZM142.047 74.4786V65.0211H142.671V69.1421C142.957 68.7608 143.288 68.4596 143.665 68.2386C144.042 68.0176 144.467 67.9071 144.939 67.9071C145.732 67.9071 146.35 68.1823 146.792 68.7326C147.238 69.2786 147.461 70.102 147.461 71.2026C147.461 71.675 147.398 72.117 147.273 72.5286C147.151 72.936 146.969 73.2913 146.727 73.5946C146.488 73.8936 146.194 74.1298 145.843 74.3031C145.496 74.4765 145.095 74.5631 144.64 74.5631C144.19 74.5631 143.802 74.4765 143.477 74.3031C143.152 74.1255 142.872 73.8655 142.638 73.5231L142.599 74.3161C142.586 74.4245 142.528 74.4786 142.424 74.4786H142.047ZM144.764 68.4011C144.335 68.4011 143.947 68.5116 143.6 68.7326C143.254 68.9536 142.944 69.2613 142.671 69.6556V73.0681C142.918 73.4408 143.191 73.703 143.49 73.8546C143.789 74.002 144.133 74.0756 144.523 74.0756C144.905 74.0756 145.238 74.0063 145.524 73.8676C145.81 73.729 146.049 73.534 146.239 73.2826C146.434 73.027 146.579 72.7236 146.675 72.3726C146.774 72.0173 146.824 71.6273 146.824 71.2026C146.824 70.2406 146.647 69.5343 146.291 69.0836C145.936 68.6286 145.427 68.4011 144.764 68.4011ZM150.378 68.0111V74.4786H149.76V68.0111H150.378ZM150.651 65.7816C150.651 65.8596 150.634 65.9333 150.599 66.0026C150.569 66.0676 150.527 66.1261 150.475 66.1781C150.423 66.2301 150.363 66.2713 150.293 66.3016C150.224 66.332 150.15 66.3471 150.072 66.3471C149.994 66.3471 149.921 66.332 149.851 66.3016C149.782 66.2713 149.721 66.2301 149.669 66.1781C149.617 66.1261 149.576 66.0676 149.546 66.0026C149.516 65.9333 149.5 65.8596 149.5 65.7816C149.5 65.7036 149.516 65.63 149.546 65.5606C149.576 65.487 149.617 65.4241 149.669 65.3721C149.721 65.3201 149.782 65.279 149.851 65.2486C149.921 65.2183 149.994 65.2031 150.072 65.2031C150.15 65.2031 150.224 65.2183 150.293 65.2486C150.363 65.279 150.423 65.3201 150.475 65.3721C150.527 65.4241 150.569 65.487 150.599 65.5606C150.634 65.63 150.651 65.7036 150.651 65.7816ZM153.963 65.0211V74.4786H153.345V65.0211H153.963ZM157.548 68.0111V74.4786H156.93V68.0111H157.548ZM157.821 65.7816C157.821 65.8596 157.803 65.9333 157.769 66.0026C157.738 66.0676 157.697 66.1261 157.645 66.1781C157.593 66.2301 157.533 66.2713 157.463 66.3016C157.394 66.332 157.32 66.3471 157.242 66.3471C157.164 66.3471 157.091 66.332 157.021 66.3016C156.952 66.2713 156.891 66.2301 156.839 66.1781C156.787 66.1261 156.746 66.0676 156.716 66.0026C156.685 65.9333 156.67 65.8596 156.67 65.7816C156.67 65.7036 156.685 65.63 156.716 65.5606C156.746 65.487 156.787 65.4241 156.839 65.3721C156.891 65.3201 156.952 65.279 157.021 65.2486C157.091 65.2183 157.164 65.2031 157.242 65.2031C157.32 65.2031 157.394 65.2183 157.463 65.2486C157.533 65.279 157.593 65.3201 157.645 65.3721C157.697 65.4241 157.738 65.487 157.769 65.5606C157.803 65.63 157.821 65.7036 157.821 65.7816ZM162.101 74.5826C161.664 74.5826 161.321 74.4613 161.074 74.2186C160.832 73.976 160.71 73.6011 160.71 73.0941V68.6741H159.781C159.733 68.6741 159.694 68.6611 159.664 68.6351C159.633 68.6091 159.618 68.5723 159.618 68.5246V68.2841L160.723 68.2061L160.879 65.8921C160.884 65.8531 160.899 65.8185 160.925 65.7881C160.955 65.7578 160.994 65.7426 161.042 65.7426H161.334V68.2126H163.369V68.6741H161.334V73.0616C161.334 73.2393 161.356 73.3931 161.399 73.5231C161.447 73.6488 161.51 73.7528 161.588 73.8351C161.67 73.9175 161.765 73.9781 161.874 74.0171C161.982 74.0561 162.099 74.0756 162.225 74.0756C162.381 74.0756 162.515 74.054 162.628 74.0106C162.74 73.963 162.838 73.9131 162.92 73.8611C163.003 73.8048 163.07 73.755 163.122 73.7116C163.174 73.664 163.215 73.6401 163.245 73.6401C163.28 73.6401 163.315 73.6618 163.349 73.7051L163.518 73.9781C163.354 74.1601 163.143 74.3075 162.888 74.4201C162.636 74.5285 162.374 74.5826 162.101 74.5826ZM166.878 76.5586C166.852 76.6193 166.817 76.6691 166.774 76.7081C166.735 76.7471 166.676 76.7666 166.598 76.7666H166.156L167.294 74.2381L164.557 68.0111H165.071C165.136 68.0111 165.185 68.0285 165.22 68.0631C165.259 68.0935 165.287 68.1281 165.305 68.1671L167.482 73.1981C167.508 73.2631 167.53 73.3303 167.547 73.3996C167.569 73.4646 167.588 73.5318 167.606 73.6011C167.627 73.5318 167.649 73.4646 167.671 73.3996C167.697 73.3303 167.723 73.2631 167.749 73.1981L169.9 68.1671C169.922 68.1195 169.952 68.0826 169.991 68.0566C170.03 68.0263 170.073 68.0111 170.121 68.0111H170.596L166.878 76.5586ZM181.634 65.2811V65.8466H178.403V74.4786H177.74V65.8466H174.49V65.2811H181.634ZM182.379 74.4786V68.0111H182.704C182.778 68.0111 182.83 68.0263 182.86 68.0566C182.895 68.087 182.914 68.139 182.919 68.2126L182.971 69.5776C183.179 69.0533 183.456 68.6438 183.803 68.3491C184.149 68.0501 184.576 67.9006 185.083 67.9006C185.278 67.9006 185.458 67.9223 185.623 67.9656C185.787 68.0046 185.943 68.0631 186.091 68.1411L186.006 68.5701C185.993 68.6395 185.95 68.6741 185.876 68.6741C185.85 68.6741 185.813 68.6655 185.766 68.6481C185.718 68.6308 185.657 68.6113 185.584 68.5896C185.514 68.568 185.428 68.5485 185.324 68.5311C185.22 68.5138 185.101 68.5051 184.966 68.5051C184.477 68.5051 184.074 68.6568 183.757 68.9601C183.445 69.2635 183.192 69.7011 182.997 70.2731V74.4786H182.379ZM191.844 74.4786C191.714 74.4786 191.633 74.418 191.603 74.2966L191.512 73.4711C191.334 73.6445 191.157 73.8005 190.979 73.9391C190.806 74.0778 190.624 74.1948 190.433 74.2901C190.242 74.3855 190.037 74.457 189.816 74.5046C189.595 74.5566 189.352 74.5826 189.088 74.5826C188.867 74.5826 188.652 74.5501 188.444 74.4851C188.236 74.4201 188.052 74.3205 187.892 74.1861C187.731 74.0518 187.601 73.8806 187.502 73.6726C187.406 73.4603 187.359 73.2068 187.359 72.9121C187.359 72.6391 187.437 72.3856 187.593 72.1516C187.749 71.9176 187.991 71.714 188.321 71.5406C188.654 71.3673 189.081 71.2286 189.601 71.1246C190.125 71.0206 190.754 70.96 191.486 70.9426V70.2666C191.486 69.6686 191.356 69.2093 191.096 68.8886C190.84 68.5636 190.459 68.4011 189.952 68.4011C189.64 68.4011 189.374 68.4445 189.153 68.5311C188.936 68.6178 188.752 68.7131 188.6 68.8171C188.448 68.9211 188.325 69.0165 188.23 69.1031C188.134 69.1898 188.054 69.2331 187.989 69.2331C187.902 69.2331 187.837 69.1941 187.794 69.1161L187.684 68.9276C188.022 68.5896 188.377 68.334 188.75 68.1606C189.122 67.9873 189.545 67.9006 190.017 67.9006C190.364 67.9006 190.667 67.957 190.927 68.0696C191.187 68.178 191.402 68.3361 191.571 68.5441C191.744 68.7478 191.874 68.997 191.961 69.2916C192.047 69.582 192.091 69.907 192.091 70.2666V74.4786H191.844ZM189.244 74.1341C189.495 74.1341 189.725 74.1081 189.933 74.0561C190.145 73.9998 190.34 73.924 190.518 73.8286C190.7 73.729 190.869 73.612 191.025 73.4776C191.181 73.3433 191.334 73.1981 191.486 73.0421V71.3586C190.871 71.376 190.34 71.4236 189.894 71.5016C189.452 71.5753 189.085 71.6771 188.795 71.8071C188.509 71.9371 188.297 72.0931 188.158 72.2751C188.024 72.4528 187.957 72.6565 187.957 72.8861C187.957 73.1028 187.991 73.2913 188.061 73.4516C188.134 73.6076 188.23 73.7376 188.347 73.8416C188.464 73.9413 188.6 74.015 188.756 74.0626C188.912 74.1103 189.075 74.1341 189.244 74.1341ZM198.796 68.8756C198.774 68.8973 198.753 68.9168 198.731 68.9341C198.714 68.9471 198.688 68.9536 198.653 68.9536C198.61 68.9536 198.549 68.9255 198.471 68.8691C198.397 68.8085 198.298 68.7435 198.172 68.6741C198.046 68.6048 197.888 68.542 197.697 68.4856C197.511 68.425 197.284 68.3946 197.015 68.3946C196.642 68.3946 196.311 68.4618 196.02 68.5961C195.734 68.7261 195.492 68.9146 195.292 69.1616C195.097 69.4086 194.948 69.7076 194.844 70.0586C194.74 70.4096 194.688 70.804 194.688 71.2416C194.688 71.6966 194.74 72.0996 194.844 72.4506C194.952 72.8016 195.104 73.0985 195.299 73.3411C195.494 73.5795 195.73 73.7615 196.007 73.8871C196.285 74.0128 196.592 74.0756 196.93 74.0756C197.242 74.0756 197.502 74.0388 197.71 73.9651C197.923 73.8915 198.096 73.8113 198.23 73.7246C198.369 73.638 198.477 73.5578 198.555 73.4841C198.638 73.4105 198.703 73.3736 198.75 73.3736C198.807 73.3736 198.85 73.3953 198.88 73.4386L199.049 73.6466C198.95 73.7766 198.824 73.898 198.672 74.0106C198.521 74.1233 198.35 74.2208 198.159 74.3031C197.968 74.3855 197.76 74.4483 197.535 74.4916C197.314 74.5393 197.082 74.5631 196.839 74.5631C196.428 74.5631 196.051 74.4895 195.708 74.3421C195.37 74.1905 195.078 73.9738 194.831 73.6921C194.588 73.4061 194.398 73.0573 194.259 72.6456C194.125 72.234 194.057 71.766 194.057 71.2416C194.057 70.7476 194.122 70.297 194.252 69.8896C194.382 69.4823 194.571 69.1313 194.818 68.8366C195.069 68.542 195.375 68.3145 195.734 68.1541C196.098 67.9895 196.514 67.9071 196.982 67.9071C197.403 67.9071 197.775 67.9743 198.1 68.1086C198.43 68.243 198.716 68.425 198.958 68.6546L198.796 68.8756ZM201.643 65.0211V70.7866H201.942C202.003 70.7866 202.059 70.778 202.111 70.7606C202.168 70.7433 202.228 70.7021 202.293 70.6371L204.887 68.1736C204.935 68.126 204.982 68.087 205.03 68.0566C205.082 68.0263 205.147 68.0111 205.225 68.0111H205.771L202.917 70.7216C202.874 70.765 202.833 70.8061 202.794 70.8451C202.755 70.8798 202.712 70.9101 202.664 70.9361C202.733 70.9708 202.792 71.012 202.839 71.0596C202.887 71.1073 202.937 71.1593 202.989 71.2156L205.985 74.4786H205.446C205.385 74.4786 205.331 74.4678 205.283 74.4461C205.236 74.4201 205.188 74.3811 205.14 74.3291L202.423 71.4171C202.35 71.3391 202.283 71.2871 202.222 71.2611C202.161 71.2308 202.066 71.2156 201.936 71.2156H201.643V74.4786H201.019V65.0211H201.643ZM209.897 67.9071C210.261 67.9071 210.597 67.97 210.904 68.0956C211.216 68.2213 211.485 68.4055 211.71 68.6481C211.94 68.8865 212.118 69.1811 212.243 69.5321C212.373 69.8831 212.438 70.2861 212.438 70.7411C212.438 70.8365 212.423 70.9015 212.393 70.9361C212.367 70.9708 212.323 70.9881 212.263 70.9881H207.589V71.1116C207.589 71.597 207.646 72.0238 207.758 72.3921C207.871 72.7605 208.031 73.0703 208.239 73.3216C208.447 73.5686 208.699 73.755 208.993 73.8806C209.288 74.0063 209.617 74.0691 209.981 74.0691C210.306 74.0691 210.588 74.0345 210.826 73.9651C211.065 73.8915 211.264 73.8113 211.424 73.7246C211.589 73.6336 211.719 73.5535 211.814 73.4841C211.91 73.4105 211.979 73.3736 212.022 73.3736C212.079 73.3736 212.122 73.3953 212.152 73.4386L212.321 73.6466C212.217 73.7766 212.079 73.898 211.905 74.0106C211.736 74.1233 211.546 74.2208 211.333 74.3031C211.125 74.3811 210.9 74.444 210.657 74.4916C210.419 74.5393 210.178 74.5631 209.936 74.5631C209.494 74.5631 209.091 74.4873 208.727 74.3356C208.363 74.1796 208.051 73.9543 207.791 73.6596C207.531 73.365 207.329 73.0053 207.186 72.5806C207.048 72.1516 206.978 71.662 206.978 71.1116C206.978 70.648 207.043 70.2211 207.173 69.8311C207.308 69.4368 207.498 69.0988 207.745 68.8171C207.997 68.5311 208.302 68.308 208.662 68.1476C209.026 67.9873 209.437 67.9071 209.897 67.9071ZM209.903 68.3686C209.57 68.3686 209.271 68.4206 209.006 68.5246C208.742 68.6286 208.512 68.7781 208.317 68.9731C208.127 69.1681 207.971 69.4021 207.849 69.6751C207.732 69.9481 207.654 70.2536 207.615 70.5916H211.879C211.879 70.245 211.832 69.9351 211.736 69.6621C211.641 69.3848 211.507 69.1508 211.333 68.9601C211.16 68.7695 210.952 68.6243 210.709 68.5246C210.467 68.4206 210.198 68.3686 209.903 68.3686ZM214.599 74.4786V68.0111H214.924C214.998 68.0111 215.05 68.0263 215.08 68.0566C215.115 68.087 215.134 68.139 215.138 68.2126L215.19 69.5776C215.398 69.0533 215.676 68.6438 216.022 68.3491C216.369 68.0501 216.796 67.9006 217.303 67.9006C217.498 67.9006 217.678 67.9223 217.842 67.9656C218.007 68.0046 218.163 68.0631 218.31 68.1411L218.226 68.5701C218.213 68.6395 218.17 68.6741 218.096 68.6741C218.07 68.6741 218.033 68.6655 217.985 68.6481C217.938 68.6308 217.877 68.6113 217.803 68.5896C217.734 68.568 217.647 68.5485 217.543 68.5311C217.439 68.5138 217.32 68.5051 217.186 68.5051C216.696 68.5051 216.293 68.6568 215.977 68.9601C215.665 69.2635 215.411 69.7011 215.216 70.2731V74.4786H214.599Z" fill="black"/>
</svg>
